<?xml version="1.0" encoding="utf-8"?>
<!-- Generator: Adobe Illustrator 19.2.1, SVG Export Plug-In . SVG Version: 6.00 Build 0)  -->
<svg version="1.1" id="layer" xmlns="http://www.w3.org/2000/svg" xmlns:xlink="http://www.w3.org/1999/xlink" x="0px" y="0px"
	 viewBox="0 0 652 652" style="enable-background:new 0 0 652 652;" xml:space="preserve">
<style type="text/css">
	.st0{fill:#D20A0A;}
</style>
<path class="st0" d="M181.4,216.7h69.9c0,0-46.5,166.1-48.8,175.1c-4.4,17.3-8.8,32.9-51.1,32.9c-50.9,0-80.5-0.2-94.4,0
	c-17.4,0.2-38-15.9-32.4-36.6l47.7-171.4h71.3c0,0-40,142.8-40.9,146.5c-0.7,3.7-4.8,13.9,17.4,14.1c16,0.4,17.3-3.9,20.1-14.1
	C147,340.2,181.4,216.7,181.4,216.7z M438.2,216.7l-12.7,45.6H273.3l12.7-45.6H438.2z M228.1,424.8l36.5-131.2h152.2L404,339.2
	h-81.6l-23.8,85.6H228.1z M514.8,290c-6.5,24-12.3,44.4-18.8,68.5c-1.2,4.2-4.1,10.4-3.2,14.3c1.9,9.2,32.2,5.6,43.2,5.6h48.6
	c-3.9,15.3-8.3,30.3-12.5,45.3H456.3c-16.9-1.6-38.9-8.8-36.8-30.6c0.7-6.9,3.9-14.6,6-22.2c10.4-37.2,21-75.2,31-111.7
	c4.4-16.2,7.9-29.9,20.8-36.5c8.3-4.2,21.5-5.5,31.4-6h115c-4.1,15.1-8.3,30.3-12.5,45.3h-66.1c-7.9,0-16.7-0.9-21.1,2.1
	C519.2,267.6,516.6,283.5,514.8,290L514.8,290z"/>
</svg>
