<?xml version="1.0" ?><svg id="Layer_1" style="enable-background:new 0 0 65 65;" version="1.1" viewBox="0 0 65 65" xml:space="preserve" xmlns="http://www.w3.org/2000/svg" xmlns:xlink="http://www.w3.org/1999/xlink"><style type="text/css">
	.st0{fill:#1C1F20;}
</style><g><path class="st0" d="M4.5,4.5c-0.6,0-1,0.4-1,1v16c0,0.6,0.4,1,1,1s1-0.4,1-1v-16C5.5,4.9,5.1,4.5,4.5,4.5z"/><path class="st0" d="M4.5,24.5c-0.6,0-1,0.4-1,1v2c0,0.6,0.4,1,1,1s1-0.4,1-1v-2C5.5,24.9,5.1,24.5,4.5,24.5z"/><path class="st0" d="M53.5,47.5c-0.6,0-1,0.4-1,1v11c0,0.6,0.4,1,1,1s1-0.4,1-1v-11C54.5,47.9,54.1,47.5,53.5,47.5z"/><path class="st0" d="M53.5,42.5c-0.6,0-1,0.4-1,1v1c0,0.6,0.4,1,1,1s1-0.4,1-1v-1C54.5,42.9,54.1,42.5,53.5,42.5z"/><path class="st0" d="M60.5,2.5h-1v-1c0-0.6-0.4-1-1-1s-1,0.4-1,1v1h-1c-0.6,0-1,0.4-1,1s0.4,1,1,1h1v1c0,0.6,0.4,1,1,1s1-0.4,1-1   v-1h1c0.6,0,1-0.4,1-1S61.1,2.5,60.5,2.5z"/><polygon class="st0" points="24.5,50.3 24.5,14.5 46.5,14.5 46.5,10.5 10.5,10.5 10.5,54.5 46.5,54.5 46.5,40.5 34.3,40.5  "/><path class="st0" d="M46.5,4.5c0-2.2-1.8-4-4-4h-28c-2.2,0-4,1.8-4,4v4h36V4.5z M34.5,6.5h-12c-0.6,0-1-0.4-1-1s0.4-1,1-1h12   c0.6,0,1,0.4,1,1S35.1,6.5,34.5,6.5z"/><path class="st0" d="M10.5,60.5c0,2.2,1.8,4,4,4h28c2.2,0,4-1.8,4-4v-4h-36V60.5z M26.6,59.5h3.8c0.6,0,1,0.4,1,1s-0.4,1-1,1h-3.8   c-0.6,0-1-0.4-1-1S26.1,59.5,26.6,59.5z"/><path class="st0" d="M37.6,26.5c-0.2-0.6-0.4-1.3-0.5-1.9h0c-0.1,0.6-0.3,1.3-0.5,1.9l-0.8,2.4h2.5L37.6,26.5z"/><path class="st0" d="M45.9,31.8c0.7,0,1.4-0.5,1.6-1.3c0-0.2,0.1-0.3,0.1-0.5v-1.1c0-0.1,0-0.3,0-0.5c-0.2-0.7-0.7-1.3-1.6-1.3   c-1.2,0-1.8,1-1.8,2.4C44.1,30.9,44.7,31.8,45.9,31.8z"/><path class="st0" d="M26.5,45.5l7-7h25v-22h-32V45.5z M54,33.3c-0.2-0.2-0.3-0.4-0.4-0.5c-0.1-0.1-0.1-0.2-0.1-0.4   c0-0.3,0.1-0.5,0.3-0.7c0.2-0.2,0.4-0.3,0.7-0.3c0.3,0,0.5,0.1,0.7,0.3c0.2,0.2,0.3,0.5,0.3,0.8c0,0.5-0.2,1-0.6,1.5   c-0.4,0.5-1,0.9-1.8,1.2L53,35c0.6-0.4,1-0.6,1.2-0.8c0.1-0.1,0.2-0.3,0.2-0.4C54.4,33.6,54.2,33.4,54,33.3z M50.9,33.3   c-0.2-0.2-0.3-0.4-0.4-0.5c-0.1-0.1-0.1-0.2-0.1-0.4c0-0.3,0.1-0.5,0.3-0.7c0.2-0.2,0.4-0.3,0.7-0.3c0.3,0,0.5,0.1,0.7,0.3   c0.2,0.2,0.3,0.5,0.3,0.8c0,0.5-0.2,1-0.6,1.5c-0.4,0.5-1,0.9-1.8,1.2L49.9,35c0.6-0.4,1-0.6,1.2-0.8c0.1-0.1,0.2-0.3,0.2-0.4   C51.2,33.6,51.1,33.4,50.9,33.3z M45.4,25.8c1,0,1.7,0.4,2,0.9h0v-4.1h1.8v8.4c0,0.7,0,1.5,0.1,2h-1.6L47.7,32h0   c-0.4,0.8-1.3,1.3-2.3,1.3c-1.7,0-3.1-1.5-3.1-3.7C42.2,27.2,43.7,25.8,45.4,25.8z M38.3,23.2l3.2,9.9h-1.9l-0.9-2.8h-3.2l-0.9,2.8   h-1.9l3.2-9.9H38.3z M32.8,21c0.2-0.2,0.4-0.3,0.7-0.3c0.3,0,0.5,0.1,0.7,0.3s0.3,0.4,0.3,0.7c0,0.2,0,0.3-0.1,0.4   c-0.1,0.1-0.2,0.3-0.4,0.5c-0.2,0.2-0.3,0.4-0.3,0.5c0,0.1,0.1,0.3,0.2,0.4c0.1,0.2,0.5,0.4,1.2,0.8l-0.1,0.3   c-0.8-0.3-1.4-0.7-1.8-1.2c-0.4-0.5-0.6-1-0.6-1.5C32.5,21.5,32.6,21.3,32.8,21z M29.7,21c0.2-0.2,0.4-0.3,0.7-0.3   c0.3,0,0.5,0.1,0.7,0.3c0.2,0.2,0.3,0.4,0.3,0.7c0,0.2,0,0.3-0.1,0.4c-0.1,0.1-0.2,0.3-0.4,0.5s-0.3,0.4-0.3,0.5   c0,0.1,0.1,0.3,0.2,0.4c0.1,0.2,0.5,0.4,1.2,0.8l-0.1,0.3c-0.8-0.3-1.4-0.7-1.8-1.2c-0.4-0.5-0.6-1-0.6-1.5   C29.4,21.5,29.5,21.3,29.7,21z"/></g></svg>